<svg xmlns="http://www.w3.org/2000/svg" xmlns:xlink="http://www.w3.org/1999/xlink" width="500" zoomAndPan="magnify" viewBox="0 0 375 374.999991" height="500" preserveAspectRatio="xMidYMid meet" version="1.0"><defs><clipPath id="ccb0aea1c9"><path d="M 171 27.183594 L 350 27.183594 L 350 348 L 171 348 Z M 171 27.183594 " clip-rule="nonzero"/></clipPath><clipPath id="da3a32e709"><path d="M 25 46 L 161 46 L 161 290 L 25 290 Z M 25 46 " clip-rule="nonzero"/></clipPath><clipPath id="0028f62b25"><path d="M 57.023438 46.695312 C 53.953125 62.113281 61.664062 78.011719 72.761719 89.109375 C 83.859375 100.207031 98.0625 107.597656 111.625 115.53125 C 125.1875 123.460938 138.714844 132.480469 147.257812 145.691406 C 154.675781 157.175781 157.683594 170.929688 159.25 184.523438 C 161.136719 200.964844 160.882812 218.265625 155.636719 233.78125 C 151.832031 224.441406 146.871094 215.484375 141.210938 207.136719 C 130.113281 190.695312 116.453125 176.175781 102.859375 161.75 C 86.964844 144.890625 71.097656 128.035156 55.203125 111.179688 C 71.640625 142.011719 97.136719 166.835938 118.695312 194.375 C 140.25 221.882812 158.613281 254.730469 156.597656 289.628906 C 154.996094 271.78125 140.507812 257.609375 124.804688 248.972656 C 109.097656 240.335938 91.472656 235.539062 75.960938 226.519531 C 46.660156 209.375 26.957031 176.878906 25.421875 143.003906 C 23.886719 108.75 39.527344 76.1875 57.023438 46.695312 Z M 57.023438 46.695312 " clip-rule="nonzero"/></clipPath></defs><g clip-path="url(#ccb0aea1c9)"><path fill="#4caf50" d="M 307.34375 27.183594 C 311.40625 47.527344 301.234375 68.511719 286.585938 83.160156 C 271.9375 97.839844 253.195312 107.566406 235.3125 118.023438 C 217.402344 128.484375 199.519531 140.414062 188.292969 157.847656 C 178.507812 173.007812 174.507812 191.175781 172.460938 209.085938 C 169.902344 230.839844 170.253906 253.644531 177.164062 274.113281 C 182.183594 261.769531 188.742188 249.964844 196.195312 238.929688 C 210.84375 217.210938 228.882812 198.050781 246.828125 178.988281 C 267.8125 156.726562 288.761719 134.496094 309.746094 112.234375 C 288.027344 152.921875 254.378906 185.738281 225.941406 222.042969 C 197.507812 258.378906 173.261719 301.75 175.914062 347.808594 C 178.027344 324.234375 197.15625 305.523438 217.914062 294.136719 C 238.671875 282.75 261.925781 276.386719 282.363281 264.488281 C 321.035156 241.96875 347.039062 199.042969 349.054688 154.328125 C 351.101562 109.101562 330.472656 66.078125 307.34375 27.183594 Z M 307.34375 27.183594 " fill-opacity="1" fill-rule="nonzero"/></g><g clip-path="url(#da3a32e709)"><g clip-path="url(#0028f62b25)"><path fill="#4caf50" d="M 161.136719 46.695312 L 161.136719 289.628906 L 23.886719 289.628906 L 23.886719 46.695312 Z M 161.136719 46.695312 " fill-opacity="1" fill-rule="nonzero"/></g></g></svg>